<?xml version="1.0" encoding="utf-8"?>
<!-- Generator: Adobe Illustrator 16.0.0, SVG Export Plug-In . SVG Version: 6.00 Build 0)  -->
<!DOCTYPE svg PUBLIC "-//W3C//DTD SVG 1.1//EN" "http://www.w3.org/Graphics/SVG/1.1/DTD/svg11.dtd">
<svg version="1.1" id="Layer_1" xmlns="http://www.w3.org/2000/svg" xmlns:xlink="http://www.w3.org/1999/xlink" x="0px" y="0px"
	 width="103.205px" height="99.199px" viewBox="73.123 12.764 103.205 99.199"
	 enable-background="new 73.123 12.764 103.205 99.199" xml:space="preserve">
<path d="M124.727,12.764l-51.604,38l7.988,10.848l4.023-2.965v53.316h28.615V76.615c0-6.054,4.923-10.977,10.978-10.977
	c6.053,0,10.977,4.923,10.977,10.977v35.348h28.611V58.648l4.025,2.965l7.987-10.848L124.727,12.764z M167.599,56.728l-6.776-4.989
	v56.734h-21.628V76.617c0-7.978-6.489-14.471-14.47-14.471c-7.979,0-14.471,6.492-14.471,14.471v31.857H88.629V51.738l-6.775,4.989
	l-3.847-5.224L124.728,17.1l46.716,34.405L167.599,56.728z"/>
</svg>
