<?xml version="1.0" encoding="utf-8"?>
<!-- Generator: Adobe Illustrator 16.0.0, SVG Export Plug-In . SVG Version: 6.00 Build 0)  -->
<!DOCTYPE svg PUBLIC "-//W3C//DTD SVG 1.1//EN" "http://www.w3.org/Graphics/SVG/1.1/DTD/svg11.dtd">
<svg version="1.1" id="Layer_1" xmlns="http://www.w3.org/2000/svg" xmlns:xlink="http://www.w3.org/1999/xlink" x="0px" y="0px"
	 width="79.826px" height="79.826px" viewBox="84.812 22.451 79.826 79.826" enable-background="new 84.812 22.451 79.826 79.826"
	 xml:space="preserve">
<path d="M153.413,22.451H96.038c-6.236,0-11.226,4.989-11.226,11.226v57.375c0,6.236,4.989,11.226,11.226,11.226h57.375
	c6.236,0,11.226-4.989,11.226-11.226V33.677C164.638,27.44,159.649,22.451,153.413,22.451z M162.143,91.052
	c0,4.864-3.866,8.731-8.73,8.731H96.038c-4.864,0-8.731-3.867-8.731-8.731V33.677c0-4.865,3.867-8.731,8.731-8.731h57.375
	c4.864,0,8.73,3.866,8.73,8.731V91.052z M147.176,58.622h-18.709V39.913c0-0.749-0.499-1.248-1.248-1.248h-4.989
	c-0.749,0-1.247,0.499-1.247,1.248v18.709h-18.709c-0.748,0-1.247,0.499-1.247,1.248v4.989c0,0.749,0.499,1.248,1.247,1.248h18.709
	v18.708c0,0.749,0.499,1.248,1.247,1.248h4.989c0.749,0,1.248-0.499,1.248-1.248V66.106h18.709c0.748,0,1.247-0.499,1.247-1.248
	V59.87C148.423,59.121,147.924,58.622,147.176,58.622z M145.928,63.611h-18.709c-0.748,0-1.247,0.499-1.247,1.247v18.71h-2.494
	v-18.71c0-0.748-0.499-1.247-1.248-1.247h-18.709v-2.495h18.709c0.749,0,1.248-0.499,1.248-1.247V41.16h2.494V59.87
	c0,0.748,0.499,1.247,1.247,1.247h18.709V63.611z"/>
</svg>
