<?xml version="1.0" encoding="utf-8"?>
<!-- Generator: Adobe Illustrator 16.0.0, SVG Export Plug-In . SVG Version: 6.00 Build 0)  -->
<!DOCTYPE svg PUBLIC "-//W3C//DTD SVG 1.1//EN" "http://www.w3.org/Graphics/SVG/1.1/DTD/svg11.dtd">
<svg version="1.1" id="Layer_1" xmlns="http://www.w3.org/2000/svg" xmlns:xlink="http://www.w3.org/1999/xlink" x="0px" y="0px"
	 width="181.417px" height="181.417px" viewBox="354.964 4387.245 181.417 181.417"
	 enable-background="new 354.964 4387.245 181.417 181.417" xml:space="preserve">
<g id="noun_852548_cc" transform="translate(181 4442.654)">
	<path id="패스_735" d="M264.656,113.254c-1.472,0.006-2.885-0.578-3.925-1.617L196.43,47.333l-0.467-0.484
		c-21.354-21.908-22.883-55.855-3.148-75.59c18.648-18.648,49.913-18.385,71.864-0.199c21.93-18.186,53.217-18.426,71.843,0.199l0,0
		c19.733,19.731,18.271,53.701-3.282,75.697l-0.44,0.487l-64.215,64.19C267.542,112.678,266.129,113.26,264.656,113.254z
		 M227.493-31.604c-10.012-0.166-19.674,3.685-26.828,10.688c-15.521,15.521-13.947,42.418,3.371,60.11l0.396,0.423l60.224,60.268
		l60.289-60.289l0.377-0.398c17.317-17.738,18.825-44.635,3.352-60.09c-15.479-15.455-42.418-13.969-60.09,3.326
		c-2.221,2.02-5.61,2.02-7.827,0C251.919-26.4,239.987-31.436,227.493-31.604L227.493-31.604z"/>
</g>
</svg>
