<?xml version="1.0" encoding="utf-8"?>
<!-- Generator: Adobe Illustrator 16.0.0, SVG Export Plug-In . SVG Version: 6.00 Build 0)  -->
<!DOCTYPE svg PUBLIC "-//W3C//DTD SVG 1.1//EN" "http://www.w3.org/Graphics/SVG/1.1/DTD/svg11.dtd">
<svg version="1.1" id="Layer_1" xmlns="http://www.w3.org/2000/svg" xmlns:xlink="http://www.w3.org/1999/xlink" x="0px" y="0px"
	 width="116.935px" height="124.729px" viewBox="66.3 0 116.935 124.729" enable-background="new 66.3 0 116.935 124.729"
	 xml:space="preserve">
<g>
	<path d="M124.725,2.495c13.596,0,24.571,11.101,24.571,24.571s-10.976,24.696-24.571,24.696c-13.595,0-24.571-11.101-24.571-24.571
		C100.154,13.72,111.13,2.495,124.725,2.495 M124.725,0c-14.967,0-27.066,12.099-27.066,27.066s12.099,27.066,27.066,27.066
		c14.967,0,27.066-12.099,27.066-27.066S139.692,0,124.725,0L124.725,0z"/>
	<path d="M124.725,67.603c12.972,0,25.693,4.49,35.797,12.598c9.979,7.982,16.963,19.333,19.832,31.681
		c0.623,2.494,0,5.114-1.621,7.234c-1.622,1.996-3.992,3.118-6.486,3.118H77.204c-2.495,0-4.864-1.122-6.486-3.118
		s-2.245-4.615-1.622-7.234C71.965,99.533,78.95,88.183,88.928,80.2C99.031,72.093,111.753,67.603,124.725,67.603 M124.725,65.108
		c-28.313,0-52.012,19.707-58.124,46.275c-1.621,6.734,3.493,13.346,10.602,13.346h95.168c6.984,0,12.098-6.611,10.602-13.346
		C176.737,84.814,153.039,65.108,124.725,65.108L124.725,65.108z"/>
</g>
</svg>
