<?xml version="1.0" encoding="utf-8"?>
<!-- Generator: Adobe Illustrator 16.0.0, SVG Export Plug-In . SVG Version: 6.00 Build 0)  -->
<!DOCTYPE svg PUBLIC "-//W3C//DTD SVG 1.1//EN" "http://www.w3.org/Graphics/SVG/1.1/DTD/svg11.dtd">
<svg version="1.1" id="Layer_1" xmlns="http://www.w3.org/2000/svg" xmlns:xlink="http://www.w3.org/1999/xlink" x="0px" y="0px"
	 width="564.894px" height="626.81px" viewBox="21.626 0 564.894 626.81" enable-background="new 21.626 0 564.894 626.81"
	 xml:space="preserve">
<g transform="matrix(0.9,0,0,0.91954,-3642.01,-617.229)">
	<g id="XMLID_2_">
		<g>
			<path fill="rgba(0,0,0,0.87)" d="M4446.434,1268.253c0,8.156,0.154,16.323,0,24.479c-0.078,2.859-0.391,5.72-0.845,8.547
				c-0.833,4.993-2.29,9.884-4.268,14.527c-3.212,7.243-7.789,13.888-13.522,19.455c-7.631,7.483-17.321,12.963-27.775,15.671
				c-5.812,1.501-11.911,2.143-17.867,1.914c-6.723-0.259-13.434-1.609-19.701-3.991c-7.021-2.686-13.511-6.623-19.078-11.58
				c-6.111-5.448-11.146-12.084-14.656-19.411c-2.6-5.253-4.354-10.853-5.266-16.584c-0.546-3.099-0.767-6.21-0.845-9.331v-0.772
				v-22.921l0.078-1.449c0.376-1.23,0.376-1.588,1.065-2.708c0.989-1.675,2.601-2.98,4.434-3.652
				c1.222-0.434,1.601-0.38,2.899-0.492h106.867c0.455,0.033,0.989,0.087,1.454,0.12c1.289,0.339,1.602,0.348,2.745,0.991
				c1.756,0.977,3.056,2.522,3.734,4.35C4446.354,1266.632,4446.354,1266.98,4446.434,1268.253z"/>
		</g>
	</g>
	<g>
		<g id="XMLID_1_">
			<g>
				<path fill="rgba(0,0,0,0.87)" d="M4697.955,1235.343c0.312,0.904,0.468,1.85,0.39,2.774c-0.155,3.339-2.444,6.33-5.654,7.428
					c-1.211,0.425-1.602,0.371-2.812,0.479h-610.711c-0.457-0.045-0.99-0.045-1.445-0.12c-0.922-0.152-1.833-0.478-2.678-0.924
					c-2.967-1.631-4.722-4.937-4.266-8.254c0.067-0.937,0.378-1.838,0.756-2.675c0.233-0.425,0.543-0.805,0.767-1.209
					l74.733-100.875c0-54.713-0.455-109.424,0-164.137c0-1.794,0.078-3.589,0.078-5.383c0.377-9.733,1.3-19.433,2.822-29.069
					c2.6-16.617,7.021-32.962,13.132-48.666c9.624-24.708,23.433-47.828,40.767-68.11c19.544-22.935,43.588-42.195,70.533-56.311
					c12.444-6.536,25.5-11.961,38.934-16.192c6.179-1.947,12.445-3.61,18.778-5.057l0.767-0.185c0-5.895-0.078-11.811,0.078-17.705
					c0-0.848,0.065-1.707,0.065-2.556c0.233-2.099,0.466-4.176,0.922-6.242c1.067-5.209,2.978-10.255,5.645-14.877
					c3.212-5.568,7.489-10.538,12.523-14.54c4.81-3.763,10.299-6.677,16.177-8.504c4.512-1.392,9.09-2.12,13.746-2.262
					c0.689-0.011,1.377-0.011,1.989-0.011c3.811,0.076,7.632,0.522,11.378,1.435c9.767,2.393,18.7,7.732,25.333,15.106
					c3.056,3.284,5.577,6.971,7.633,10.907c2.444,4.774,4.133,9.929,4.889,15.214c0.377,2.316,0.534,4.633,0.534,6.971l0.078,0.62
					v15.943c1.989,0.413,3.977,0.87,5.878,1.326c6.412,1.534,12.666,3.295,18.855,5.318c13.056,4.295,25.732,9.722,37.867,16.193
					c27.71,14.844,52.289,35.18,72.056,59.334c15.956,19.488,28.711,41.445,37.712,64.805c6.955,17.922,11.609,36.648,13.978,55.658
					c1.222,9.799,1.833,19.662,1.833,29.537v161.44l74.733,100.875l0.678,1.208
					C4697.655,1234.475,4697.889,1234.897,4697.955,1235.343z"/>
			</g>
		</g>
	</g>
</g>
</svg>
