<?xml version="1.0" encoding="utf-8"?>
<!-- Generator: Adobe Illustrator 16.0.0, SVG Export Plug-In . SVG Version: 6.00 Build 0)  -->
<!DOCTYPE svg PUBLIC "-//W3C//DTD SVG 1.1//EN" "http://www.w3.org/Graphics/SVG/1.1/DTD/svg11.dtd">
<svg version="1.1" id="Layer_1" xmlns="http://www.w3.org/2000/svg" xmlns:xlink="http://www.w3.org/1999/xlink" x="0px" y="0px"
	 width="154.29px" height="155.91px" viewBox="1931.885 3850.945 154.29 155.91"
	 enable-background="new 1931.885 3850.945 154.29 155.91" xml:space="preserve">
<g id="noun_950468_cc" transform="translate(1871 3847.344)">
	<g id="그룹_138" transform="translate(13.304 3.6)">
		<g id="XMLID_1_">
			<g>
				<path fill="#FFD0D0" d="M124.721,9.231c37.311,0,68.01,30.771,68.01,68.722c0,37.96-30.699,68.729-68.01,68.729
					c-37.3,0-68.01-30.77-68.01-68.729C56.711,40.001,87.421,9.231,124.721,9.231z"/>
				<path d="M124.721,0.001c42.641,0,77.15,34.87,77.15,77.949c0,43.08-34.511,77.961-77.15,77.961
					c-42.63,0-77.14-34.881-77.14-77.961C47.581,34.871,82.091,0.001,124.721,0.001z M192.731,77.95
					c0-37.949-30.699-68.721-68.01-68.721c-37.3,0-68.01,30.771-68.01,68.721c0,37.961,30.71,68.729,68.01,68.729
					C162.031,146.681,192.731,115.911,192.731,77.95z"/>
			</g>
		</g>
		<path id="패스_739" d="M124.725,57.441c-11.33-0.119-20.611,8.971-20.729,20.299c-0.119,11.33,8.97,20.611,20.3,20.73
			s20.61-8.97,20.729-20.3c0.001-0.072,0.001-0.144,0.001-0.216C145.052,66.698,135.982,57.532,124.725,57.441z"/>
		<path id="패스_740" d="M124.725,17.695c-2.549,0-4.615,2.066-4.614,4.615c0,2.549,2.066,4.615,4.614,4.615
			c27.661,0,50.246,22.822,50.246,50.773c-0.076,2.521,1.906,4.627,4.429,4.703c2.521,0.075,4.628-1.906,4.703-4.43
			c0.003-0.091,0.003-0.183,0-0.273C184.36,44.876,157.461,17.695,124.725,17.695z"/>
		<path id="패스_741" d="M124.725,128.728c-27.657,0-50.248-22.822-50.248-50.772c0.076-2.521-1.907-4.628-4.429-4.703
			c-2.522-0.076-4.628,1.907-4.704,4.43c-0.002,0.091-0.002,0.183,0,0.273c0,33.079,26.899,60.262,59.635,60.262
			c2.526-0.003,4.571-2.053,4.568-4.578c0-0.013,0-0.024,0-0.038C129.293,130.781,127.263,128.728,124.725,128.728z"/>
		<path id="패스_742" d="M124.725,33.849c-2.549,0-4.615,2.067-4.614,4.616c0,2.549,2.066,4.614,4.614,4.615
			c19.032,0,34.514,15.642,34.514,34.874c-0.076,2.521,1.906,4.628,4.429,4.703c2.521,0.075,4.628-1.906,4.703-4.43
			c0.003-0.091,0.003-0.183,0-0.273C168.372,53.594,148.833,33.849,124.725,33.849z"/>
		<path id="패스_743" d="M124.725,112.829c-19.032,0-34.512-15.644-34.512-34.875c0.075-2.521-1.907-4.627-4.43-4.703
			c-2.521-0.076-4.627,1.906-4.703,4.43c-0.003,0.091-0.003,0.184,0,0.273c0,24.36,19.54,44.105,43.646,44.105
			c2.549-0.001,4.615-2.066,4.614-4.615c0-2.55-2.065-4.615-4.614-4.615H124.725z"/>
	</g>
</g>
</svg>
