<?xml version="1.0" encoding="utf-8"?>
<!-- Generator: Adobe Illustrator 16.0.0, SVG Export Plug-In . SVG Version: 6.00 Build 0)  -->
<!DOCTYPE svg PUBLIC "-//W3C//DTD SVG 1.1//EN" "http://www.w3.org/Graphics/SVG/1.1/DTD/svg11.dtd">
<svg version="1.1" id="Layer_1" xmlns="http://www.w3.org/2000/svg" xmlns:xlink="http://www.w3.org/1999/xlink" x="0px" y="0px"
	 width="155.158px" height="156.084px" viewBox="204.336 4284.825 155.158 156.084"
	 enable-background="new 204.336 4284.825 155.158 156.084" xml:space="preserve">
<g id="noun_853835_cc" transform="translate(152 4280)">
	<g id="그룹_135">
		<path id="패스_732" display="none" d="M188.325,117.671c19.639-32.42,9.277-74.622-23.143-94.26
			c-32.42-19.64-74.623-9.277-94.261,23.143c-19.639,32.42-9.276,74.622,23.144,94.261c21.396,12.961,48.149,13.254,69.826,0.764
			l1.559-0.897l29.807,7.986l-7.883-29.413L188.325,117.671z M157.144,56.598l-19.773,12.42v30.11h-0.096
			c0.062,0.584,0.095,1.17,0.096,1.757c0.021,9.109-7.346,16.512-16.455,16.531c-9.109,0.021-16.51-7.346-16.531-16.455
			s7.346-16.51,16.455-16.531c1.564-0.004,3.123,0.217,4.627,0.651v-25.94c0-5.761,4.67-10.43,10.432-10.43h19.332
			c2.309,0,4.179,1.871,4.178,4.18c-0.002,1.56-0.87,2.988-2.254,3.707H157.144z"/>
		<path id="패스_733" d="M155.231,48.711h-19.334c-5.76,0-10.431,4.669-10.431,10.43v25.936
			c-8.743-2.527-17.883,2.513-20.409,11.257c-2.527,8.744,2.512,17.882,11.256,20.41c8.744,2.526,17.883-2.513,20.41-11.257
			c0.598-2.064,0.784-4.227,0.551-6.362h0.098V69.018l19.781-12.42c2.049-1.062,2.848-3.585,1.785-5.633
			C158.22,49.58,156.791,48.711,155.231,48.711z"/>
		<path id="패스_734" d="M196.873,120.211c21.036-37.137,7.985-84.296-29.151-105.333C130.584-6.158,83.425,6.893,62.388,44.029
			c-21.035,37.137-7.984,84.296,29.151,105.333c23.13,13.103,51.369,13.396,74.769,0.78l0.334-0.182l40.853,10.948l-10.819-40.363
			L196.873,120.211z M165.442,140.677l-1.56,0.897c-32.771,18.846-74.616,7.556-93.463-25.217
			C51.574,83.584,62.865,41.74,95.638,22.895c32.771-18.845,74.616-7.557,93.463,25.218c12.42,21.6,12.123,48.241-0.775,69.56
			l-0.957,1.58l7.882,29.413L165.442,140.677z"/>
	</g>
</g>
</svg>
