<?xml version="1.0" encoding="utf-8"?>
<!-- Generator: Adobe Illustrator 16.0.0, SVG Export Plug-In . SVG Version: 6.00 Build 0)  -->
<!DOCTYPE svg PUBLIC "-//W3C//DTD SVG 1.1//EN" "http://www.w3.org/Graphics/SVG/1.1/DTD/svg11.dtd">
<svg version="1.1" id="Layer_1" xmlns="http://www.w3.org/2000/svg" xmlns:xlink="http://www.w3.org/1999/xlink" x="0px" y="0px"
	 width="155.159px" height="156.088px" viewBox="204.335 4284.827 155.159 156.088"
	 enable-background="new 204.335 4284.827 155.159 156.088" xml:space="preserve">
<g id="그룹_135">
	<g id="XMLID_1_">
		<g>
			<path d="M348.675,4400.545l10.819,40.37l-40.851-10.95l-0.34,0.182c-23.4,12.608-51.64,12.318-74.771-0.78
				c-37.13-21.04-50.181-68.2-29.149-105.34c21.04-37.13,68.2-50.181,105.34-29.149c37.131,21.039,50.18,68.199,29.15,105.34
				L348.675,4400.545z M344.655,4389.275c13.4-30.99,2.209-67.892-27.471-85.86c-32.42-19.64-74.629-9.28-94.26,23.14
				c-19.641,32.42-9.279,74.621,23.141,94.262c19.42,11.76,43.24,13.09,63.68,3.898c0.619-0.27,1.23-0.56,1.841-0.858
				c1.449-0.71,2.88-1.46,4.3-2.28l1.561-0.899l29.8,7.99h0.011l-7.88-29.41l0.949-1.58c0.36-0.601,0.71-1.188,1.051-1.8
				c0.08-0.141,0.159-0.279,0.239-0.43c0.359-0.642,0.699-1.28,1.029-1.92c0.01-0.021,0.021-0.041,0.041-0.07
				c0.35-0.68,0.68-1.359,1-2.04C344.024,4390.705,344.354,4389.995,344.655,4389.275z"/>
			<polygon points="339.375,4399.255 347.255,4428.665 347.245,4428.665 339.364,4399.255 340.325,4397.675 			"/>
			<path d="M343.685,4391.415c0.33-0.71,0.66-1.431,0.971-2.14C344.354,4389.995,344.024,4390.705,343.685,4391.415z"/>
			<path d="M342.685,4393.455c0.34-0.67,0.68-1.359,1-2.04C343.364,4392.096,343.035,4392.775,342.685,4393.455z"/>
			<path d="M341.614,4395.445c0.352-0.631,0.701-1.271,1.031-1.92C342.315,4394.165,341.976,4394.805,341.614,4395.445z"/>
			<path d="M340.325,4397.675c0.359-0.59,0.71-1.188,1.051-1.8C341.035,4396.484,340.685,4397.075,340.325,4397.675z"/>
			<path d="M309.745,4424.715c0.609-0.279,1.23-0.568,1.841-0.859C310.976,4424.154,310.364,4424.445,309.745,4424.715z"/>
			<path d="M311.375,4332.404c0.021,0.16,0.028,0.33,0.028,0.49c0,0.189-0.01,0.381-0.039,0.561c0,0.01,0,0.02,0,0.02
				c-0.02,0.15-0.051,0.301-0.09,0.451c-0.03,0.119-0.061,0.25-0.121,0.369c-0.049,0.142-0.108,0.28-0.18,0.42
				c-0.02,0.062-0.05,0.131-0.09,0.19c-0.029,0.05-0.061,0.101-0.09,0.149c-0.37,0.631-0.932,1.17-1.641,1.539l-19.779,12.42h-0.012
				v30.11h-0.09c0.031,0.3,0.062,0.61,0.07,0.91c0.01,0.28,0.02,0.569,0.02,0.851c0,0.301-0.01,0.601-0.02,0.91
				c-0.021,0.279-0.039,0.549-0.061,0.83c0,0.01,0,0.021,0,0.021c-0.029,0.271-0.069,0.54-0.109,0.8
				c-0.021,0.12-0.04,0.25-0.061,0.37c-0.029,0.181-0.069,0.37-0.109,0.55c-0.08,0.37-0.17,0.75-0.279,1.12
				c0,0.01-0.011,0.028-0.011,0.04c-0.062,0.21-0.13,0.42-0.2,0.63c-0.08,0.24-0.17,0.479-0.25,0.71c-0.08,0.2-0.16,0.391-0.24,0.58
				c-0.18,0.42-0.379,0.83-0.59,1.229c-0.109,0.201-0.22,0.4-0.33,0.59c-0.229,0.392-0.47,0.762-0.729,1.131
				c-0.131,0.181-0.262,0.359-0.391,0.529c-0.41,0.529-0.84,1.029-1.301,1.5c-0.16,0.16-0.31,0.311-0.47,0.46
				c-4.101,3.87-10.09,5.54-15.899,3.86c-8.75-2.53-13.791-11.67-11.26-20.41c0.52-1.801,1.329-3.451,2.35-4.91
				c0.38-0.541,0.801-1.061,1.24-1.551c0-0.01,0.01-0.01,0.01-0.02c0.439-0.48,0.91-0.939,1.391-1.359
				c0.33-0.291,0.67-0.561,1.02-0.82c0.352-0.26,0.711-0.51,1.08-0.738c0.19-0.11,0.371-0.222,0.562-0.33
				c0.188-0.11,0.38-0.211,0.569-0.32c0.199-0.1,0.391-0.189,0.59-0.29c0.359-0.16,0.721-0.319,1.091-0.47
				c0.079-0.021,0.149-0.051,0.22-0.08c0.37-0.131,0.75-0.26,1.131-0.371c0.209-0.061,0.42-0.119,0.629-0.17
				c0.431-0.101,0.86-0.189,1.291-0.26c0.129-0.029,0.239-0.051,0.359-0.051c0.17-0.028,0.34-0.06,0.52-0.068
				c0.041-0.012,0.07-0.012,0.11-0.021c0.21-0.02,0.421-0.029,0.63-0.049c0.91-0.061,1.83-0.041,2.75,0.06
				c0.971,0.11,1.93,0.301,2.87,0.569v-0.01v-25.93c0-5.771,4.671-10.432,10.431-10.432h19.34c0.16,0,0.311,0.01,0.471,0.03
				c0.119,0.01,0.25,0.03,0.359,0.06c0.109,0.021,0.209,0.041,0.311,0.07c0.029,0.01,0.061,0.021,0.1,0.029
				c0.131,0.041,0.25,0.09,0.381,0.141c0.129,0.051,0.26,0.12,0.399,0.189c0.091,0.051,0.171,0.101,0.261,0.16
				c0.31,0.199,0.59,0.439,0.83,0.721c0.109,0.109,0.199,0.229,0.289,0.359c0.109,0.149,0.211,0.319,0.301,0.49
				c0.069,0.119,0.119,0.25,0.17,0.379c0.029,0.062,0.049,0.131,0.07,0.19c0.039,0.101,0.068,0.2,0.079,0.29
				C311.325,4332.016,311.354,4332.215,311.375,4332.404z"/>
			<path d="M311.175,4331.535c-0.021-0.061-0.04-0.13-0.07-0.189C311.136,4331.404,311.155,4331.475,311.175,4331.535z"/>
			<path d="M311.155,4334.295c-0.041,0.15-0.1,0.29-0.18,0.42C311.045,4334.575,311.104,4334.436,311.155,4334.295z"/>
			<path d="M310.795,4335.055c0.029-0.049,0.06-0.1,0.091-0.148C310.864,4334.955,310.835,4335.005,310.795,4335.055z"/>
			<path d="M309.515,4329.396c-0.09-0.062-0.17-0.11-0.26-0.16C309.335,4329.285,309.425,4329.335,309.515,4329.396z"/>
			<path d="M308.854,4329.045c-0.129-0.05-0.25-0.1-0.379-0.141C308.604,4328.945,308.735,4328.984,308.854,4329.045z"/>
			<path d="M308.375,4328.875c-0.101-0.029-0.2-0.05-0.312-0.07C308.166,4328.814,308.274,4328.846,308.375,4328.875z"/>
			<path d="M308.065,4328.805c-0.109-0.028-0.24-0.049-0.359-0.06C307.825,4328.755,307.944,4328.775,308.065,4328.805z"/>
			<rect x="289.364" y="4349.016" width="0.012" height="30.109"/>
			<path d="M289.345,4380.035c0.03,0.59,0.03,1.18,0,1.76c0.01-0.311,0.02-0.609,0.02-0.91
				C289.364,4380.605,289.354,4380.314,289.345,4380.035z"/>
			<path d="M289.285,4382.625c0.021-0.279,0.04-0.55,0.062-0.83C289.335,4382.075,289.315,4382.346,289.285,4382.625z"/>
			<path d="M289.175,4383.445c0.04-0.26,0.08-0.53,0.109-0.801C289.255,4382.915,289.215,4383.175,289.175,4383.445z"/>
			<path fill="#FFD0D0" d="M309.155,4336.596c0.709-0.371,1.271-0.91,1.641-1.541c0.04-0.049,0.068-0.1,0.09-0.148
				c0.04-0.061,0.07-0.13,0.09-0.189c0.08-0.131,0.141-0.271,0.18-0.42c0.062-0.121,0.091-0.25,0.121-0.371
				c0.039-0.148,0.07-0.299,0.09-0.449c0,0,0-0.01,0-0.021c0.029-0.19,0.039-0.37,0.039-0.56c0-0.172-0.01-0.33-0.028-0.49
				c-0.021-0.19-0.051-0.392-0.12-0.58c-0.011-0.102-0.04-0.19-0.08-0.291c-0.021-0.061-0.039-0.129-0.07-0.189
				c-0.049-0.13-0.1-0.26-0.17-0.38c-0.09-0.17-0.189-0.34-0.299-0.49c-0.091-0.13-0.181-0.25-0.291-0.358
				c-0.24-0.28-0.521-0.521-0.83-0.721c-0.09-0.061-0.18-0.109-0.26-0.16c-0.141-0.07-0.271-0.141-0.4-0.189
				c-0.119-0.061-0.25-0.101-0.379-0.141c-0.041-0.01-0.07-0.021-0.101-0.029c-0.101-0.03-0.21-0.061-0.312-0.07
				c-0.119-0.029-0.239-0.05-0.358-0.061c-0.16-0.021-0.312-0.029-0.472-0.029h-19.34c-5.76,0-10.43,4.66-10.43,10.432v25.93
				c-0.96-0.279-1.92-0.46-2.869-0.561c-0.921-0.101-1.841-0.119-2.75-0.061c-0.211,0.02-0.421,0.029-0.631,0.05
				c-0.04,0.01-0.07,0.01-0.109,0.021c-0.181,0.021-0.351,0.041-0.521,0.069c-0.12,0-0.229,0.021-0.36,0.051
				c-0.439,0.06-0.869,0.149-1.289,0.26c-0.211,0.05-0.42,0.101-0.631,0.17c-0.38,0.101-0.76,0.229-1.13,0.37
				c-0.069,0.029-0.141,0.061-0.22,0.08c-0.37,0.141-0.73,0.3-1.092,0.471c-0.198,0.09-0.398,0.18-0.59,0.289
				c-0.188,0.101-0.379,0.201-0.568,0.32c-0.189,0.1-0.381,0.21-0.561,0.33c-0.371,0.229-0.729,0.479-1.08,0.738
				c-0.351,0.25-0.689,0.521-1.021,0.82c-0.489,0.42-0.96,0.87-1.392,1.359c0,0.01-0.01,0.01-0.01,0.021
				c-0.449,0.49-0.869,1-1.24,1.55c-1.909,2.689-3.028,5.99-3.02,9.54c0.02,9.11,7.42,16.472,16.53,16.45
				c4.38-0.01,8.351-1.721,11.3-4.529c0.16-0.141,0.319-0.291,0.471-0.461c0.469-0.47,0.899-0.97,1.299-1.5
				c0.131-0.17,0.261-0.35,0.392-0.528c0.261-0.37,0.511-0.74,0.729-1.131c0.119-0.188,0.229-0.39,0.33-0.59
				c0.219-0.399,0.41-0.81,0.59-1.229c0.09-0.189,0.17-0.379,0.24-0.58c0.079-0.229,0.17-0.47,0.25-0.709
				c0.079-0.211,0.139-0.42,0.199-0.631c0-0.011,0.01-0.029,0.01-0.039c0.11-0.371,0.2-0.75,0.28-1.121
				c0.04-0.18,0.08-0.359,0.108-0.549c0.021-0.121,0.041-0.25,0.062-0.371c0.04-0.271,0.08-0.529,0.109-0.799c0,0,0-0.012,0-0.021
				c0.03-0.279,0.051-0.55,0.062-0.83c0.029-0.58,0.029-1.17,0-1.76c-0.011-0.3-0.041-0.609-0.07-0.91h0.09h0.011v-30.109
				L309.155,4336.596z M247.635,4302.896c32.771-18.852,74.62-7.562,93.47,25.22c10.83,18.84,11.99,41.521,3.551,61.16
				c-0.311,0.71-0.641,1.431-0.971,2.14c-0.32,0.681-0.66,1.371-1,2.041c-0.02,0.029-0.029,0.049-0.039,0.069
				c-0.33,0.649-0.681,1.29-1.031,1.92c-0.079,0.149-0.158,0.29-0.238,0.431c-0.341,0.609-0.689,1.209-1.051,1.799l-0.961,1.58
				l7.881,29.41l-29.801-7.99l-1.56,0.9c-1.42,0.82-2.851,1.57-4.3,2.279c-0.609,0.291-1.23,0.58-1.841,0.859
				c-31.688,14.23-69.64,2.391-87.319-28.359C203.575,4363.585,214.865,4321.745,247.635,4302.896z"/>
			<path d="M277.465,4365.075v0.01c-0.94-0.271-1.899-0.46-2.87-0.569C275.545,4364.615,276.505,4364.795,277.465,4365.075z"/>
			<path d="M271.845,4364.455c-0.209,0.02-0.42,0.029-0.63,0.05C271.425,4364.484,271.636,4364.475,271.845,4364.455z"/>
			<path d="M271.104,4364.525c-0.18,0.01-0.35,0.039-0.52,0.068C270.755,4364.564,270.925,4364.545,271.104,4364.525z"/>
			<path d="M246.065,4420.814c-32.42-19.641-42.78-61.84-23.141-94.261c19.631-32.42,61.84-42.778,94.26-23.14
				c29.68,17.97,40.871,54.869,27.471,85.859c8.439-19.641,7.279-42.32-3.551-61.16c-18.85-32.779-60.699-44.07-93.469-25.221
				c-32.771,18.851-44.062,60.689-25.211,93.461c17.68,30.75,55.631,42.59,87.319,28.358
				C289.306,4433.904,265.485,4432.575,246.065,4420.814z"/>
		</g>
	</g>
</g>
</svg>
