<?xml version="1.0" encoding="utf-8"?>
<!-- Generator: Adobe Illustrator 16.0.0, SVG Export Plug-In . SVG Version: 6.00 Build 0)  -->
<!DOCTYPE svg PUBLIC "-//W3C//DTD SVG 1.1//EN" "http://www.w3.org/Graphics/SVG/1.1/DTD/svg11.dtd">
<svg version="1.1"
	 id="Layer_1" xmlns:sodipodi="http://sodipodi.sourceforge.net/DTD/sodipodi-0.dtd" xmlns:inkscape="http://www.inkscape.org/namespaces/inkscape" xmlns:rdf="http://www.w3.org/1999/02/22-rdf-syntax-ns#" xmlns:svg="http://www.w3.org/2000/svg" xmlns:dc="http://purl.org/dc/elements/1.1/" xmlns:cc="http://creativecommons.org/ns#"
	 xmlns="http://www.w3.org/2000/svg" xmlns:xlink="http://www.w3.org/1999/xlink" x="0px" y="0px" width="92.793px"
	 height="92.334px" viewBox="78.1 16.197 92.793 92.334" enable-background="new 78.1 16.197 92.793 92.334" xml:space="preserve">
<g transform="translate(0,-952.36218)">
	<g transform="translate(12.985729,965.34791)">
		<path d="M101.724,3.211c-19.932,0-36.151,16.22-36.151,36.196c0,19.932,16.219,36.151,36.151,36.151
			c9.546,0,18.209-3.712,24.705-9.723L155.73,95.18c0.486,0.486,1.282,0.486,1.812,0c0.486-0.485,0.486-1.325,0-1.812
			l-29.346-29.301c6.055-6.452,9.723-15.159,9.723-24.661C137.919,19.431,121.7,3.211,101.724,3.211z M101.724,5.73
			c18.65,0,33.677,15.026,33.677,33.677c0,18.606-15.026,33.677-33.677,33.677c-18.606,0-33.677-15.071-33.677-33.677
			C68.047,20.756,83.118,5.73,101.724,5.73z"/>
	</g>
</g>
</svg>
