<?xml version="1.0" encoding="utf-8"?>
<!-- Generator: Adobe Illustrator 16.0.0, SVG Export Plug-In . SVG Version: 6.00 Build 0)  -->
<!DOCTYPE svg PUBLIC "-//W3C//DTD SVG 1.1//EN" "http://www.w3.org/Graphics/SVG/1.1/DTD/svg11.dtd">
<svg version="1.1" id="Layer_1" xmlns="http://www.w3.org/2000/svg" xmlns:xlink="http://www.w3.org/1999/xlink" x="0px" y="0px"
	 width="111.203px" height="127.455px" viewBox="68.744 0 111.203 127.455" enable-background="new 68.744 0 111.203 127.455"
	 xml:space="preserve">
<g transform="matrix(1,0,0,1,-4065,-689)">
	<g transform="matrix(1,0,0,1,4052.24,680.111)">
		<g transform="matrix(0.9,0,0,0.91954,-3642.01,-617.229)">
			<path d="M4209.82,796.82c0.255,0.066,0.315,0.068,0.542,0.194c0.345,0.192,0.6,0.497,0.735,0.857
				c0.089,0.24,0.089,0.308,0.105,0.559c0,1.606,0.029,3.213,0,4.819c-0.017,0.563-0.075,1.126-0.165,1.681
				c-0.166,0.982-0.451,1.947-0.842,2.861c-0.632,1.426-1.533,2.734-2.66,3.829c-1.503,1.475-3.412,2.554-5.471,3.086
				c-1.141,0.295-2.344,0.423-3.516,0.377c-1.323-0.051-2.645-0.318-3.877-0.786c-1.382-0.528-2.659-1.305-3.756-2.28
				c-1.203-1.073-2.194-2.379-2.886-3.821c-0.511-1.034-0.856-2.137-1.037-3.266c-0.105-0.609-0.15-1.221-0.166-1.836v-0.152v-4.513
				l0.015-0.285c0.075-0.243,0.075-0.312,0.21-0.533c0.195-0.33,0.511-0.587,0.872-0.718c0.24-0.087,0.315-0.076,0.57-0.098h21.039
				C4209.623,796.804,4209.729,796.812,4209.82,796.82z M4190.164,800.064c0,1.034-0.016,2.07,0,3.103
				c0.015,0.152,0.015,0.305,0.03,0.458c0.105,1.24,0.437,2.456,1.037,3.557c0.57,1.027,1.322,1.949,2.254,2.69
				c0.796,0.646,1.713,1.155,2.705,1.487c0.872,0.295,1.788,0.452,2.706,0.463c0.856,0.011,1.712-0.1,2.54-0.333
				c1.683-0.48,3.2-1.478,4.329-2.806c0.63-0.74,1.126-1.582,1.486-2.478c0.406-1.044,0.601-2.154,0.616-3.272v-2.868
				C4201.96,800.064,4196.068,800.064,4190.164,800.064z M4198.909,681.085c0.751,0.015,1.503,0.104,2.24,0.284
				c1.923,0.471,3.681,1.522,4.989,2.973c0.601,0.648,1.096,1.372,1.501,2.147c0.482,0.94,0.812,1.955,0.962,2.995
				c0.075,0.456,0.105,0.912,0.105,1.372l0.015,0.122v3.139c0.391,0.082,0.781,0.172,1.157,0.261
				c1.263,0.302,2.495,0.648,3.712,1.048c2.569,0.844,5.064,1.913,7.454,3.187c5.455,2.922,10.294,6.925,14.186,11.681
				c3.14,3.835,5.651,8.158,7.423,12.755c1.368,3.529,2.284,7.215,2.75,10.956c0.241,1.93,0.36,3.872,0.36,5.816v31.78
				l14.712,19.859l0.136,0.236c0.043,0.086,0.089,0.169,0.104,0.257c0.061,0.177,0.09,0.362,0.076,0.546
				c-0.03,0.656-0.482,1.244-1.113,1.462c-0.239,0.083-0.314,0.072-0.556,0.092h-120.22c-0.09-0.007-0.195-0.009-0.285-0.024
				c-0.181-0.03-0.361-0.092-0.526-0.181c-0.585-0.321-0.932-0.973-0.841-1.625c0.015-0.184,0.075-0.362,0.15-0.528
				c0.046-0.082,0.106-0.158,0.151-0.236l14.711-19.859c0-10.77-0.09-21.541,0-32.311c0-0.354,0.015-0.708,0.015-1.061
				c0.075-1.916,0.256-3.826,0.556-5.723c0.511-3.27,1.382-6.487,2.585-9.578c1.893-4.866,4.613-9.416,8.024-13.409
				c3.847-4.514,8.581-8.305,13.886-11.085c2.449-1.287,5.019-2.353,7.664-3.186c1.218-0.383,2.45-0.711,3.697-0.996l0.15-0.036
				c0-1.162-0.015-2.325,0.015-3.487c0-0.167,0.015-0.335,0.015-0.502c0.046-0.413,0.091-0.824,0.181-1.229
				c0.21-1.026,0.586-2.018,1.112-2.929c0.631-1.097,1.473-2.074,2.465-2.861c0.946-0.742,2.028-1.315,3.185-1.675
				c0.887-0.273,1.788-0.417,2.705-0.445C4198.654,681.085,4198.789,681.085,4198.909,681.085z M4198.699,684.353
				c-0.631,0.012-1.262,0.107-1.863,0.295c-1.593,0.496-2.946,1.604-3.772,3.025c-0.571,1.013-0.871,2.155-0.871,3.313v4.555
				c-0.03,0.248-0.016,0.315-0.105,0.551c-0.121,0.353-0.376,0.658-0.707,0.851c-0.226,0.13-0.3,0.132-0.542,0.201
				c-0.39,0.077-0.781,0.157-1.172,0.241c-1.156,0.259-2.299,0.558-3.426,0.905c-2.164,0.667-4.283,1.504-6.297,2.499
				c-5.349,2.624-10.113,6.34-13.945,10.827c-3.171,3.715-5.695,7.948-7.453,12.474c-1.248,3.179-2.104,6.498-2.555,9.87
				c-0.256,1.945-0.391,3.902-0.391,5.865v32.306c0,0.086,0,0.171-0.016,0.256c-0.03,0.17-0.09,0.333-0.165,0.485
				c-0.045,0.076-0.09,0.146-0.135,0.218l-13.104,17.695h113.668l-13.104-17.695c-0.045-0.072-0.104-0.141-0.135-0.218
				c-0.075-0.152-0.135-0.315-0.165-0.485c-0.015-0.085-0.015-0.17-0.015-0.256c0-10.935,0.075-21.872,0-32.809
				c-0.03-1.644-0.136-3.286-0.346-4.92c-0.39-3.172-1.127-6.301-2.223-9.314c-1.654-4.608-4.118-8.938-7.229-12.752
				c-3.967-4.839-8.986-8.836-14.652-11.601c-2.118-1.031-4.328-1.89-6.581-2.564c-1.368-0.408-2.766-0.745-4.178-1.02l-0.241-0.045
				l-0.24-0.044l-0.287-0.077c-0.074-0.04-0.165-0.073-0.255-0.122c-0.331-0.191-0.587-0.497-0.722-0.853
				c-0.09-0.237-0.074-0.305-0.104-0.555c0-1.547,0.03-3.097,0-4.645c-0.03-1.1-0.317-2.176-0.873-3.138
				c-0.812-1.399-2.133-2.493-3.696-3.001c-0.573-0.186-1.173-0.287-1.774-0.314
				C4198.924,684.354,4198.804,684.353,4198.699,684.353z"/>
		</g>
	</g>
</g>
</svg>
