<?xml version="1.0" encoding="utf-8"?>
<!-- Generator: Adobe Illustrator 16.0.0, SVG Export Plug-In . SVG Version: 6.00 Build 0)  -->
<!DOCTYPE svg PUBLIC "-//W3C//DTD SVG 1.1//EN" "http://www.w3.org/Graphics/SVG/1.1/DTD/svg11.dtd">
<svg version="1.1"
	 id="Layer_1" xmlns:sodipodi="http://sodipodi.sourceforge.net/DTD/sodipodi-0.dtd" xmlns:inkscape="http://www.inkscape.org/namespaces/inkscape" xmlns:rdf="http://www.w3.org/1999/02/22-rdf-syntax-ns#" xmlns:svg="http://www.w3.org/2000/svg" xmlns:dc="http://purl.org/dc/elements/1.1/" xmlns:cc="http://creativecommons.org/ns#"
	 xmlns="http://www.w3.org/2000/svg" xmlns:xlink="http://www.w3.org/1999/xlink" x="0px" y="0px" width="97.307px"
	 height="97.307px" viewBox="76.072 13.71 97.307 97.307" enable-background="new 76.072 13.71 97.307 97.307" xml:space="preserve"
	>
<g transform="translate(0,-952.36218)">
	<path d="M115.985,966.073c-21.984,0-39.913,17.929-39.913,39.913c0,21.984,17.929,39.914,39.913,39.914
		c9.199,0,17.676-3.157,24.439-8.42l24.398,24.439c1.949,1.947,5.146,1.948,7.095,0s1.948-5.146,0-7.094l-24.438-24.4
		c5.262-6.763,8.418-15.24,8.418-24.438C155.897,984.002,137.969,966.073,115.985,966.073L115.985,966.073z M115.985,976.051
		c16.592,0,29.935,13.343,29.935,29.935s-13.343,29.935-29.935,29.935s-29.935-13.344-29.935-29.935S99.393,976.051,115.985,976.051
		z"/>
</g>
</svg>
