<?xml version="1.0" encoding="utf-8"?>
<!-- Generator: Adobe Illustrator 16.0.0, SVG Export Plug-In . SVG Version: 6.00 Build 0)  -->
<!DOCTYPE svg PUBLIC "-//W3C//DTD SVG 1.1//EN" "http://www.w3.org/Graphics/SVG/1.1/DTD/svg11.dtd">
<svg version="1.1" id="Layer_1" xmlns="http://www.w3.org/2000/svg" xmlns:xlink="http://www.w3.org/1999/xlink" x="0px" y="0px"
	 width="171.481px" height="155.904px" viewBox="359.934 4400 171.481 155.904"
	 enable-background="new 359.934 4400 171.481 155.904" xml:space="preserve">
<g id="noun_852548_cc" transform="translate(181 4442.654)">
	<g id="XMLID_1_">
		<g>
			<path d="M336.525-28.738c9.3,9.299,13.891,21.76,13.891,34.639c0,14.451-5.779,29.432-17.181,41.061l-0.438,0.48l-64.21,64.189
				c-1.04,1.051-2.46,1.631-3.932,1.619c-1.47,0.012-2.88-0.568-3.92-1.619l-64.3-64.301l-0.471-0.49
				c-21.351-21.898-22.88-55.85-3.149-75.578c18.649-18.65,49.91-18.391,71.86-0.201C286.605-47.129,317.895-47.369,336.525-28.738z
				 M325.325,39.191c17.32-17.73,18.82-44.631,3.352-60.09c-15.48-15.451-42.42-13.961-60.09,3.33c-2.222,2.02-5.61,2.02-7.83,0
				c-8.84-8.83-20.771-13.871-33.262-14.041c-10.01-0.16-19.67,3.689-26.829,10.689c-15.521,15.521-13.95,42.42,3.369,60.109
				l0.4,0.432l60.22,60.26l60.29-60.291L325.325,39.191z"/>
			<path fill="#FFD0D0" d="M328.676-20.898c15.47,15.459,13.97,42.359-3.352,60.09l-0.38,0.398l-60.29,60.291l-60.22-60.26
				l-0.4-0.432C186.715,21.5,185.144-5.4,200.665-20.92c7.159-7,16.819-10.85,26.829-10.689c12.49,0.17,24.421,5.211,33.262,14.041
				c2.22,2.02,5.608,2.02,7.829,0C286.256-34.859,313.195-36.35,328.676-20.898z"/>
		</g>
	</g>
</g>
</svg>
